<?xml version="1.0" encoding="utf-8"?>
<!-- Generator: Adobe Illustrator 25.2.3, SVG Export Plug-In . SVG Version: 6.00 Build 0)  -->
<svg version="1.1" id="Lager_1" xmlns="http://www.w3.org/2000/svg" xmlns:xlink="http://www.w3.org/1999/xlink" x="0px" y="0px"
	 viewBox="0 0 800 544" style="enable-background:new 0 0 800 544;" xml:space="preserve">
<style type="text/css">
	.st0{fill:none;stroke:#CCCCCC;stroke-width:4;stroke-linecap:round;stroke-linejoin:round;stroke-miterlimit:10;}
	.st1{fill:none;stroke:#404040;stroke-width:4;stroke-miterlimit:10;}
	.st2{fill:#4ED1A1;stroke:#404040;stroke-width:4;stroke-miterlimit:10;}
	.st3{fill:#FFFFFF;stroke:#404040;stroke-width:4;stroke-miterlimit:10;}
	.st4{fill:#FFFFFF;stroke:#CCCCCC;stroke-width:4;stroke-linecap:round;stroke-linejoin:round;stroke-miterlimit:10;}
	.st5{fill:#404040;}
	.st6{fill:none;stroke:#404040;stroke-width:4;stroke-linecap:round;stroke-linejoin:round;stroke-miterlimit:10;}
	.st7{fill:#4ED1A1;stroke:#404040;stroke-width:4;stroke-linecap:round;stroke-linejoin:round;stroke-miterlimit:10;}
	.st8{fill:#FFFFFF;stroke:#404040;stroke-width:4;stroke-linecap:round;stroke-linejoin:round;stroke-miterlimit:10;}
	.st9{fill:#B3E3FF;stroke:#404040;stroke-width:4;stroke-linecap:round;stroke-linejoin:round;stroke-miterlimit:10;}
	.st10{fill:#414141;}
</style>
<path class="st0" d="M315,219h55.5 M230,260.3c0,22.8-18.5,41.3-41.3,41.3 M230,260.3c0-22.8,18.5-41.3,41.3-41.3H315"/>
<path class="st1" d="M474.2,260.3c0,22.8-18.5,41.3-41.3,41.3 M474.2,260.3c0-22.8,18.5-41.3,41.3-41.3h43.7"/>
<circle class="st2" cx="559.1" cy="219" r="21.2"/>
<path class="st1" d="M135.3,301.5h297.6"/>
<path class="st3" d="M156.5,301.5c0,11.7-9.5,21.2-21.2,21.2s-21.2-9.5-21.2-21.2s9.5-21.2,21.2-21.2
	C147,280.4,156.5,289.9,156.5,301.5z M336.2,301.5c0,11.7-9.5,21.2-21.2,21.2s-21.2-9.5-21.2-21.2s9.5-21.2,21.2-21.2
	C326.7,280.4,336.2,289.9,336.2,301.5z M412.9,301.5c0,11.7-9.5,21.2-21.2,21.2s-21.2-9.5-21.2-21.2s9.5-21.2,21.2-21.2
	C403.4,280.4,412.9,289.9,412.9,301.5z"/>
<path class="st4" d="M412.9,219c0,11.7-9.5,21.2-21.2,21.2s-21.2-9.5-21.2-21.2s9.5-21.2,21.2-21.2S412.9,207.3,412.9,219z"/>
<circle class="st4" cx="315" cy="219" r="21.2"/>
<path class="st2" d="M657,219c0,11.7-9.5,21.2-21.2,21.2s-21.2-9.5-21.2-21.2s9.5-21.2,21.2-21.2S657,207.3,657,219z"/>
<path class="st4" d="M341.7,78.9h100v50h-100V78.9z"/>
<path class="st5" d="M364.9,109.9V99.3h6.5v1.4h-5v3.4h4.5v1.4h-4.5v4.5h-1.5V109.9z M379.5,107.9c-0.4,1.3-1.6,2.3-3.2,2.3
	c-1.9,0-3.6-1.4-3.6-3.9c0-2.3,1.6-3.8,3.5-3.8c2.2,0,3.5,1.5,3.5,3.8v0.4h-5.4c0,1.3,1,2.2,2.2,2.2s1.8-0.6,2-1.5L379.5,107.9z
	 M378.1,105.6c0-1-0.7-1.8-2-1.8c-1.2,0-1.9,0.9-2,1.8H378.1z M383.8,105.8l2-0.3c0.4-0.1,0.6-0.3,0.6-0.5c0-0.7-0.5-1.3-1.6-1.3
	c-1,0-1.5,0.6-1.6,1.5l-1.4-0.3c0.2-1.4,1.4-2.3,3-2.3c2.2,0,3,1.2,3,2.6v3.6c0,0.6,0.1,1,0.1,1.2h-1.4c0-0.2-0.1-0.5-0.1-1
	c-0.3,0.5-1,1.2-2.3,1.2c-1.5,0-2.4-1-2.4-2.2C381.7,106.7,382.6,106,383.8,105.8L383.8,105.8z M386.3,106.8v-0.3l-2.2,0.3
	c-0.6,0.1-1.1,0.4-1.1,1.1c0,0.5,0.5,1,1.2,1C385.4,109,386.3,108.4,386.3,106.8z M392.6,102.7h1.6v1.3h-1.6v3.8c0,0.7,0.3,1,1,1
	c0.2,0,0.4,0,0.6-0.1v1.2c-0.1,0-0.5,0.1-1,0.1c-1.2,0-2-0.8-2-2.1v-4h-1.4v-1.3h0.4c0.8,0,1.1-0.5,1.1-1.1v-1.2h1.3
	C392.6,100.3,392.6,102.7,392.6,102.7z M399.4,110.1c-1.7,0-2.7-1.3-2.7-2.9v-4.5h1.4v4.3c0,1,0.4,1.9,1.6,1.9
	c1.1,0,1.7-0.8,1.7-1.8v-4.4h1.4v5.9c0,0.6,0,1.1,0.1,1.3h-1.3c0-0.2-0.1-0.6-0.1-0.9C401.1,109.8,400.2,110.1,399.4,110.1z
	 M410,104.1h-0.6c-1.2,0-2,0.6-2,2.2v3.6H406v-7.2h1.4v1.3c0.5-1.1,1.4-1.4,2.2-1.4h0.5v1.5H410z M418.5,107.9
	c-0.4,1.3-1.6,2.3-3.2,2.3c-1.9,0-3.6-1.4-3.6-3.9c0-2.3,1.6-3.8,3.4-3.8c2.2,0,3.5,1.5,3.5,3.8v0.4h-5.4c0,1.3,1,2.2,2.2,2.2
	s1.8-0.6,2-1.5L418.5,107.9z M417.1,105.6c0-1-0.7-1.8-2-1.8c-1.2,0-1.9,0.9-2,1.8H417.1z"/>
<path class="st6" d="M391.7,174.7v-23.5 M402.6,166l-10.9,10.9L380.8,166"/>
<path class="st7" d="M585.8,78.9h100v50h-100V78.9z"/>
<path class="st5" d="M609,109.9V99.3h6.5v1.4h-5v3.4h4.5v1.4h-4.5v4.5H609V109.9z M623.6,107.9c-0.4,1.3-1.6,2.3-3.2,2.3
	c-1.9,0-3.6-1.4-3.6-3.9c0-2.3,1.6-3.8,3.4-3.8c2.2,0,3.5,1.5,3.5,3.8v0.4h-5.4c0,1.3,1,2.2,2.2,2.2s1.8-0.6,2-1.5L623.6,107.9z
	 M622.2,105.6c0-1-0.7-1.8-2-1.8c-1.2,0-1.9,0.9-2,1.8H622.2z M628,105.8l2-0.3c0.4-0.1,0.6-0.3,0.6-0.5c0-0.7-0.5-1.3-1.6-1.3
	c-1,0-1.5,0.6-1.6,1.5l-1.4-0.3c0.2-1.4,1.4-2.3,3-2.3c2.2,0,3,1.2,3,2.6v3.6c0,0.6,0.1,1,0.1,1.2h-1.4c0-0.2-0.1-0.5-0.1-1
	c-0.3,0.5-1,1.2-2.3,1.2c-1.5,0-2.4-1-2.4-2.2C625.8,106.7,626.7,106,628,105.8L628,105.8z M630.5,106.8v-0.3l-2.2,0.3
	c-0.6,0.1-1,0.4-1,1.1c0,0.5,0.5,1,1.2,1C629.5,109,630.5,108.4,630.5,106.8z M636.7,102.7h1.6v1.3h-1.6v3.8c0,0.7,0.3,1,1,1
	c0.2,0,0.4,0,0.6-0.1v1.2c-0.1,0-0.5,0.1-1,0.1c-1.2,0-2-0.8-2-2.1v-4h-1.4v-1.3h0.4c0.8,0,1.1-0.5,1.1-1.1v-1.2h1.3L636.7,102.7
	L636.7,102.7z M643.5,110.1c-1.7,0-2.7-1.3-2.7-2.9v-4.5h1.4v4.3c0,1,0.5,1.9,1.6,1.9s1.7-0.8,1.7-1.8v-4.4h1.4v5.9
	c0,0.6,0,1.1,0.1,1.3h-1.3c0-0.2-0.1-0.6-0.1-0.9C645.3,109.8,644.4,110.1,643.5,110.1L643.5,110.1z M654.1,104.1h-0.6
	c-1.2,0-2,0.6-2,2.2v3.6h-1.4v-7.2h1.4v1.3c0.5-1.1,1.4-1.4,2.2-1.4h0.5v1.5H654.1z M662.6,107.9c-0.4,1.3-1.6,2.3-3.2,2.3
	c-1.9,0-3.6-1.4-3.6-3.9c0-2.3,1.6-3.8,3.5-3.8c2.2,0,3.5,1.5,3.5,3.8v0.4h-5.4c0,1.3,1,2.2,2.2,2.2s1.8-0.6,2-1.5L662.6,107.9z
	 M661.2,105.6c0-1-0.7-1.8-2-1.8c-1.2,0-1.9,0.9-2,1.8H661.2z"/>
<path class="st6" d="M635.8,174.7v-23.5 M646.7,166l-10.9,10.9L625,166"/>
<path class="st1" d="M580.3,219h34.4"/>
<path class="st6" d="M389.7,346.4v23.5 M378.8,355.1l10.9-10.9l10.9,10.9"/>
<path class="st8" d="M552.6,219h13 M554.5,214.4l9.2,9.2 M563.7,214.4l-9.2,9.2 M559.1,212.5v13 M629.3,219h13 M631.2,214.4l9.2,9.2
	 M640.4,214.4l-9.2,9.2 M635.8,212.5v13"/>
<path class="st6" d="M597.5,47.4h15.4V32.1 M420.4,44.2C445.3,21.1,478.5,7,515.1,7c36.5,0,69.7,14,94.5,37"/>
<path class="st5" d="M342.3,525.1c2,0,3.2,1.2,3.2,2.9c0,1.1-0.7,2-1.6,2.3c1.2,0.3,1.9,1.4,1.9,2.6c0,1.7-1.3,2.9-3.3,2.9h-3.7
	v-10.6h3.5V525.1z M342.2,529.8c1.2,0,1.9-0.7,1.9-1.7s-0.7-1.7-2-1.7h-1.8v3.4H342.2z M342.4,534.5c1.2,0,2-0.7,2-1.7
	s-0.6-1.7-1.9-1.7h-2.1v3.4H342.4z M352.4,530h-0.6c-1.2,0-2,0.6-2,2.2v3.6h-1.4v-7.2h1.4v1.3c0.5-1.1,1.4-1.4,2.2-1.4h0.5v1.5
	L352.4,530z M356.4,531.7l2-0.3c0.4-0.1,0.6-0.3,0.6-0.5c0-0.7-0.5-1.3-1.6-1.3c-1,0-1.5,0.6-1.6,1.5l-1.4-0.3
	c0.2-1.4,1.4-2.3,3-2.3c2.2,0,3,1.2,3,2.6v3.6c0,0.6,0.1,1,0.1,1.2H359c0-0.2-0.1-0.5-0.1-1c-0.3,0.5-1,1.2-2.3,1.2
	c-1.5,0-2.4-1-2.4-2.2C354.2,532.6,355.2,531.8,356.4,531.7L356.4,531.7z M358.9,532.7v-0.3l-2.2,0.3c-0.6,0.1-1.1,0.4-1.1,1.1
	c0,0.5,0.5,1,1.2,1C358,534.8,358.9,534.3,358.9,532.7z M364.7,535.8h-1.4v-7.2h1.4v1c0.5-0.9,1.4-1.2,2.2-1.2
	c1.7,0,2.6,1.2,2.6,2.9v4.6H368v-4.3c0-1-0.4-1.8-1.7-1.8c-1.1,0-1.7,0.9-1.7,2v4H364.7z M377.5,534.7c-0.3,0.7-1.1,1.3-2.2,1.3
	c-2.1,0-3.4-1.7-3.4-3.8c0-2,1.4-3.8,3.4-3.8c1.3,0,2,0.6,2.2,1.2v-4.7h1.4v9.5c0,0.7,0.1,1.2,0.1,1.3h-1.4
	C377.6,535.5,377.5,535.2,377.5,534.7z M375.4,534.7c1.3,0,2.1-1.1,2.1-2.6s-0.8-2.5-2.1-2.5s-2.1,1-2.1,2.5
	S374.1,534.7,375.4,534.7z M393.9,535.8l-5.7-8.7v8.7h-1.5v-10.6h2l5.3,8.2v-8.2h1.5v10.6H393.9L393.9,535.8z M405,533.7
	c-0.4,1.3-1.6,2.3-3.2,2.3c-1.9,0-3.6-1.4-3.6-3.9c0-2.3,1.6-3.8,3.5-3.8c2.2,0,3.5,1.5,3.5,3.8v0.4h-5.4c0,1.3,1,2.2,2.2,2.2
	s1.8-0.6,2-1.5L405,533.7z M403.6,531.4c0-1-0.7-1.8-2-1.8c-1.2,0-1.9,0.9-2,1.8H403.6z M413,528.6l1.9,5.4l1.6-5.4h1.5l-2.3,7.2
	h-1.5l-1.9-5.5l-1.9,5.5h-1.5l-2.4-7.2h1.5l1.6,5.4l1.9-5.4H413L413,528.6z M424.1,530.5c0-3.6,2.6-5.5,5.3-5.5
	c2.4,0,4.1,1.3,4.7,3.4l-1.4,0.5c-0.4-1.6-1.6-2.5-3.3-2.5c-1.9,0-3.8,1.4-3.8,4.2s1.8,4.2,3.8,4.2c1.8,0,3-1.1,3.4-2.5l1.3,0.5
	c-0.6,2-2.2,3.4-4.7,3.4C426.7,536,424.1,534,424.1,530.5L424.1,530.5z M443.2,532.2c0,2.2-1.5,3.8-3.7,3.8s-3.7-1.6-3.7-3.8
	s1.5-3.8,3.7-3.8C441.6,528.3,443.2,530,443.2,532.2z M441.7,532.2c0-1.7-1-2.6-2.2-2.6s-2.2,0.9-2.2,2.6c0,1.7,1,2.6,2.2,2.6
	S441.7,533.8,441.7,532.2z M445.7,535.8v-7.2h1.3v1c0.5-0.8,1.4-1.2,2.2-1.2c0.9,0,1.8,0.4,2.2,1.4c0.6-1,1.5-1.4,2.4-1.4
	c1.3,0,2.5,0.9,2.5,2.7v4.7h-1.4v-4.5c0-0.9-0.5-1.6-1.5-1.6s-1.7,0.8-1.7,1.8v4.4h-1.4v-4.5c0-0.9-0.4-1.6-1.5-1.6
	c-1,0-1.7,0.8-1.7,1.8v4.3h-1.4V535.8z M459.3,535.8v-7.2h1.4v1c0.5-0.8,1.3-1.2,2.2-1.2c0.9,0,1.8,0.4,2.2,1.4
	c0.6-1,1.5-1.4,2.4-1.4c1.3,0,2.5,0.9,2.5,2.7v4.7h-1.4v-4.5c0-0.9-0.5-1.6-1.5-1.6s-1.7,0.8-1.7,1.8v4.4H464v-4.5
	c0-0.9-0.5-1.6-1.5-1.6s-1.7,0.8-1.7,1.8v4.3h-1.5V535.8z M473.6,524.8c0.6,0,1,0.4,1,1s-0.5,1-1,1c-0.6,0-1-0.5-1-1
	S473,524.8,473.6,524.8z M472.9,535.8v-7.2h1.4v7.2H472.9z M479.3,528.6h1.6v1.3h-1.6v3.8c0,0.7,0.3,1,1,1c0.2,0,0.4,0,0.6-0.1v1.2
	c-0.1,0-0.5,0.1-1,0.1c-1.2,0-2-0.8-2-2.1v-4h-1.4v-1.3h0.4c0.8,0,1.1-0.5,1.1-1.1v-1.2h1.3V528.6L479.3,528.6z M484.2,533.5
	c0.1,0.8,0.7,1.3,1.7,1.3c0.8,0,1.2-0.4,1.2-1c0-0.4-0.3-0.8-0.9-0.9l-1.2-0.3c-1.1-0.2-1.8-1-1.8-2c0-1.2,1.2-2.3,2.6-2.3
	c2,0,2.6,1.3,2.7,1.9l-1.2,0.5c-0.1-0.4-0.4-1.2-1.5-1.2c-0.7,0-1.2,0.5-1.2,1c0,0.4,0.3,0.8,0.8,0.9l1.2,0.3c1.3,0.3,2,1.1,2,2.1
	s-0.9,2.2-2.6,2.2c-2,0-2.8-1.3-2.9-2.1L484.2,533.5L484.2,533.5z"/>
<path class="st8" d="M310.1,530.3h13 M312,525.7l9.2,9.2 M321.2,525.7l-9.2,9.2 M316.6,523.8v13"/>
<g>
	<path class="st9" d="M341.7,392.9h96.2v50h-96.2V392.9z"/>
	<g>
		<path class="st10" d="M374.5,424v-10h2l2.4,7.1c0.2,0.7,0.4,1.2,0.5,1.5c0.1-0.4,0.3-0.9,0.5-1.6l2.4-7h1.8v10h-1.3v-8.4L380,424
			h-1.2l-2.9-8.5v8.5H374.5z"/>
		<path class="st10" d="M391.5,423.1c-0.5,0.4-0.9,0.7-1.3,0.8c-0.4,0.2-0.9,0.2-1.4,0.2c-0.8,0-1.4-0.2-1.8-0.6
			c-0.4-0.4-0.6-0.9-0.6-1.5c0-0.4,0.1-0.7,0.2-1c0.2-0.3,0.4-0.5,0.6-0.7c0.3-0.2,0.6-0.3,0.9-0.4c0.2-0.1,0.6-0.1,1.1-0.2
			c1-0.1,1.7-0.3,2.2-0.4c0-0.2,0-0.3,0-0.3c0-0.5-0.1-0.9-0.3-1.1c-0.3-0.3-0.8-0.4-1.4-0.4c-0.6,0-1,0.1-1.3,0.3s-0.5,0.6-0.6,1.1
			l-1.2-0.2c0.1-0.5,0.3-0.9,0.5-1.2c0.3-0.3,0.6-0.6,1.1-0.7c0.5-0.2,1-0.3,1.6-0.3c0.6,0,1.1,0.1,1.5,0.2c0.4,0.1,0.7,0.3,0.9,0.6
			c0.2,0.2,0.3,0.5,0.4,0.8c0,0.2,0.1,0.6,0.1,1.1v1.6c0,1.1,0,1.9,0.1,2.2c0.1,0.3,0.2,0.6,0.3,0.9h-1.3
			C391.7,423.8,391.5,423.5,391.5,423.1z M391.5,420.4c-0.4,0.2-1.1,0.3-2,0.5c-0.5,0.1-0.9,0.2-1.1,0.2s-0.4,0.2-0.5,0.4
			c-0.1,0.2-0.2,0.4-0.2,0.6c0,0.3,0.1,0.6,0.4,0.8c0.2,0.2,0.6,0.3,1.1,0.3s0.9-0.1,1.3-0.3c0.4-0.2,0.6-0.5,0.8-0.9
			c0.1-0.3,0.2-0.7,0.2-1.2L391.5,420.4L391.5,420.4z"/>
		<path class="st10" d="M395.2,415.4V414h1.2v1.4H395.2z M395.2,424v-7.3h1.2v7.3H395.2z"/>
		<path class="st10" d="M399,424v-7.3h1.1v1c0.5-0.8,1.3-1.2,2.3-1.2c0.4,0,0.8,0.1,1.2,0.2c0.4,0.2,0.6,0.4,0.8,0.6
			c0.2,0.2,0.3,0.6,0.4,0.9c0,0.2,0.1,0.6,0.1,1.2v4.5h-1.2v-4.4c0-0.5,0-0.9-0.1-1.1c-0.1-0.2-0.3-0.4-0.5-0.6
			c-0.2-0.1-0.5-0.2-0.9-0.2c-0.5,0-1,0.2-1.4,0.5c-0.4,0.3-0.6,1-0.6,1.9v4L399,424L399,424z"/>
	</g>
</g>
</svg>
